<?xml version="1.0" encoding="utf-8"?>
<!-- Generator: Adobe Illustrator 22.0.1, SVG Export Plug-In . SVG Version: 6.00 Build 0)  -->
<svg version="1.1" id="Layer_1" xmlns="http://www.w3.org/2000/svg" xmlns:xlink="http://www.w3.org/1999/xlink" x="0px" y="0px"
	 viewBox="0 0 245 76" style="enable-background:new 0 0 245 76;" xml:space="preserve">
<style type="text/css">
	.st0{fill:#093E5F;}
	.st1{fill:#1C6F81;}
	.st2{fill:none;stroke:#000000;stroke-width:0.125;stroke-miterlimit:10;}
</style>
<g>
	<g>
		<path class="st0" d="M69.2,29.1c0-0.1,0-0.3,0.1-0.4c0.1-0.1,0.2-0.1,0.3-0.1h6.1c1.3,0,2.5,0.2,3.6,0.7c1.1,0.5,2.1,1.2,3,2
			c0.9,0.8,1.5,1.8,2,3c0.5,1.1,0.7,2.3,0.7,3.6c0,1.3-0.2,2.5-0.7,3.7c-0.5,1.1-1.2,2.1-2,3c-0.9,0.8-1.8,1.5-3,2
			c-1.1,0.5-2.3,0.7-3.6,0.7h-6.1c-0.1,0-0.3,0-0.3-0.1c-0.1-0.1-0.1-0.2-0.1-0.4V29.1z M75.5,44.7c1,0,1.9-0.2,2.7-0.5
			c0.8-0.3,1.5-0.8,2.1-1.4c0.6-0.6,1.1-1.3,1.4-2.2c0.3-0.8,0.5-1.7,0.5-2.7c0-1-0.2-1.9-0.5-2.7c-0.3-0.8-0.8-1.5-1.4-2.1
			c-0.6-0.6-1.3-1.1-2.1-1.4c-0.8-0.3-1.7-0.5-2.7-0.5h-3.5v13.6H75.5z"/>
		<path class="st0" d="M89.3,32.2c-0.4,0-0.8-0.2-1.1-0.5c-0.3-0.3-0.4-0.7-0.4-1.1c0-0.4,0.1-0.8,0.4-1.1c0.3-0.3,0.7-0.5,1.1-0.5
			c0.4,0,0.8,0.2,1.1,0.5c0.3,0.3,0.5,0.7,0.5,1.1c0,0.4-0.2,0.8-0.5,1.1C90.1,32.1,89.7,32.2,89.3,32.2z M88,37.1
			c0-0.1,0-0.3,0.1-0.4s0.2-0.1,0.4-0.1h1.5c0.1,0,0.3,0,0.4,0.1s0.1,0.2,0.1,0.4v9.7c0,0.1,0,0.3-0.1,0.4c-0.1,0.1-0.2,0.1-0.4,0.1
			h-1.5c-0.1,0-0.3,0-0.4-0.1C88.1,47,88,46.9,88,46.7V37.1z"/>
		<path class="st0" d="M93.2,46.6c0-0.5,0.1-1,0.3-1.3c0.2-0.4,0.4-0.7,0.7-0.9c0.3-0.3,0.6-0.6,1-0.7c-0.2-0.2-0.3-0.4-0.4-0.7
			c-0.1-0.2-0.2-0.5-0.3-0.8c-0.1-0.3-0.1-0.7-0.1-1.1c0-0.6,0.1-1.2,0.3-1.8c0.2-0.6,0.5-1.1,0.9-1.5c0.4-0.4,0.9-0.8,1.5-1
			c0.6-0.3,1.2-0.4,1.9-0.4h4.7c0.3,0,0.5,0.2,0.5,0.5v0.7c0,0.1,0,0.2-0.1,0.3c-0.1,0.1-0.1,0.2-0.2,0.2l-1.5,0.4
			c0.2,0.2,0.4,0.4,0.6,0.7c0.1,0.2,0.3,0.5,0.4,0.9c0.1,0.4,0.2,0.8,0.2,1.3c0,0.6-0.1,1.1-0.3,1.6c-0.2,0.5-0.5,1-0.9,1.4
			c-0.4,0.4-0.9,0.7-1.4,1c-0.6,0.2-1.2,0.4-1.9,0.4c-0.7,0-1.2-0.1-1.6-0.2c-0.4-0.1-0.6-0.2-0.7-0.2c-0.1,0-0.1,0-0.3,0.1
			c-0.1,0.1-0.2,0.1-0.4,0.3c-0.1,0.1-0.2,0.3-0.3,0.4c-0.1,0.2-0.1,0.3-0.1,0.6c0,0.3,0.1,0.6,0.3,0.8c0.2,0.2,0.5,0.3,0.9,0.3h3.6
			c0.6,0,1.1,0.1,1.6,0.2c0.5,0.2,0.9,0.4,1.3,0.7s0.7,0.7,0.9,1.1c0.2,0.4,0.3,1,0.3,1.5c0,0.6-0.1,1.1-0.4,1.7
			c-0.3,0.5-0.6,1-1.1,1.4c-0.5,0.4-1.1,0.7-1.8,1c-0.7,0.2-1.5,0.4-2.4,0.4c-0.9,0-1.7-0.1-2.4-0.3c-0.7-0.2-1.2-0.5-1.6-0.9
			c-0.4-0.3-0.7-0.7-0.9-1.2c-0.2-0.4-0.3-0.9-0.3-1.3c0-0.4,0.1-0.7,0.2-1c0.1-0.3,0.3-0.6,0.5-0.8c0.2-0.2,0.4-0.4,0.5-0.5
			c0.2-0.1,0.3-0.2,0.4-0.2v-0.1c-0.1,0-0.3-0.1-0.5-0.2c-0.2-0.1-0.4-0.3-0.7-0.5c-0.2-0.2-0.4-0.5-0.5-0.8
			C93.3,47.4,93.2,47,93.2,46.6z M96.1,51.4c0,0.6,0.3,1,0.8,1.4c0.5,0.4,1.2,0.5,2,0.5c0.4,0,0.8,0,1.2-0.1c0.4-0.1,0.7-0.2,1-0.4
			c0.3-0.2,0.5-0.4,0.7-0.7s0.2-0.5,0.2-0.9c0-0.1,0-0.2-0.1-0.4c0-0.2-0.1-0.3-0.3-0.5c-0.1-0.2-0.3-0.3-0.6-0.4
			c-0.3-0.1-0.6-0.2-1-0.2c-0.4,0-0.8,0-1.2,0c-0.4,0-0.8,0-1.2,0.1c0,0-0.1,0.1-0.3,0.1c-0.2,0.1-0.3,0.2-0.5,0.3
			c-0.2,0.1-0.3,0.3-0.5,0.5C96.2,50.9,96.1,51.1,96.1,51.4z M98.9,43.5c0.7,0,1.2-0.2,1.6-0.7c0.4-0.5,0.6-1,0.6-1.8
			c0-0.7-0.2-1.3-0.6-1.8c-0.4-0.5-1-0.7-1.6-0.7c-0.7,0-1.2,0.2-1.7,0.7c-0.4,0.5-0.7,1-0.7,1.8c0,0.7,0.2,1.3,0.7,1.8
			C97.7,43.2,98.3,43.5,98.9,43.5z"/>
		<path class="st0" d="M106.8,37.1c0-0.1,0-0.3,0.1-0.4s0.2-0.1,0.4-0.1h0.8c0.2,0,0.4,0.1,0.4,0.3l0.3,0.9c0.1-0.1,0.2-0.2,0.4-0.3
			c0.2-0.2,0.5-0.3,0.8-0.5c0.3-0.2,0.7-0.3,1.1-0.5c0.4-0.1,0.9-0.2,1.5-0.2c0.8,0,1.5,0.1,2.1,0.4c0.6,0.3,1,0.6,1.4,1.1
			c0.4,0.5,0.6,1,0.8,1.6c0.2,0.6,0.2,1.3,0.2,2v5.4c0,0.1,0,0.3-0.1,0.4c-0.1,0.1-0.2,0.1-0.4,0.1H115c-0.1,0-0.3,0-0.4-0.1
			c-0.1-0.1-0.1-0.2-0.1-0.4v-5.5c0-0.9-0.2-1.5-0.6-2c-0.4-0.5-0.9-0.7-1.6-0.7c-0.4,0-0.8,0.1-1.2,0.2c-0.3,0.1-0.6,0.3-0.9,0.5
			c-0.3,0.2-0.5,0.4-0.6,0.5c-0.2,0.2-0.2,0.3-0.3,0.4v6.5c0,0.3-0.2,0.5-0.6,0.5h-1.4c-0.1,0-0.3,0-0.4-0.1
			c-0.1-0.1-0.1-0.2-0.1-0.4V37.1z"/>
		<path class="st0" d="M121.9,32.2c-0.4,0-0.8-0.2-1.1-0.5c-0.3-0.3-0.4-0.7-0.4-1.1c0-0.4,0.1-0.8,0.4-1.1c0.3-0.3,0.7-0.5,1.1-0.5
			c0.4,0,0.8,0.2,1.1,0.5c0.3,0.3,0.5,0.7,0.5,1.1c0,0.4-0.2,0.8-0.5,1.1C122.7,32.1,122.3,32.2,121.9,32.2z M120.6,37.1
			c0-0.1,0-0.3,0.1-0.4s0.2-0.1,0.4-0.1h1.5c0.1,0,0.3,0,0.4,0.1s0.1,0.2,0.1,0.4v9.7c0,0.1,0,0.3-0.1,0.4c-0.1,0.1-0.2,0.1-0.4,0.1
			h-1.5c-0.1,0-0.3,0-0.4-0.1c-0.1-0.1-0.1-0.2-0.1-0.4V37.1z"/>
		<path class="st0" d="M127.6,38.8h-1.1c-0.1,0-0.3,0-0.4-0.1c-0.1-0.1-0.1-0.2-0.1-0.4v-1.2c0-0.3,0.2-0.5,0.5-0.5h1.1v-3
			c0-0.1,0-0.3,0.1-0.4c0.1-0.1,0.2-0.1,0.4-0.1l1.5,0c0.1,0,0.3,0,0.3,0.1c0.1,0.1,0.1,0.2,0.1,0.4v3h2.7c0.3,0,0.5,0.2,0.5,0.5
			v1.2c0,0.1,0,0.3-0.1,0.4c-0.1,0.1-0.2,0.1-0.4,0.1h-2.7v5.3c0,0.5,0.1,0.8,0.2,0.9c0.2,0.1,0.4,0.2,0.6,0.2
			c0.3,0,0.6-0.1,0.9-0.2s0.6-0.2,0.7-0.3c0.2-0.1,0.3-0.1,0.4,0c0.1,0.1,0.2,0.2,0.2,0.3l0.5,1.2c0.1,0.3,0,0.5-0.2,0.6
			c-0.1,0-0.2,0.1-0.4,0.2c-0.2,0.1-0.5,0.2-0.8,0.3c-0.3,0.1-0.6,0.2-0.9,0.2c-0.3,0.1-0.7,0.1-1,0.1c-0.5,0-1-0.1-1.3-0.2
			c-0.3-0.2-0.6-0.4-0.8-0.7c-0.2-0.3-0.4-0.6-0.4-1c-0.1-0.4-0.1-0.8-0.1-1.3V38.8z"/>
		<path class="st0" d="M135,37.3c-0.1-0.2-0.1-0.3,0-0.5c0.1-0.1,0.2-0.2,0.4-0.2h1.8c0.2,0,0.3,0.1,0.5,0.3l3.3,7.1h0l3.2-7.1
			c0.1-0.2,0.3-0.3,0.6-0.3h1.5c0.2,0,0.4,0.1,0.5,0.2c0.1,0.1,0.1,0.3,0,0.5l-8.2,17.6c0,0.1-0.1,0.2-0.2,0.2
			c-0.1,0.1-0.2,0.1-0.3,0.1h-1.6c-0.2,0-0.3-0.1-0.4-0.2c-0.1-0.1-0.1-0.3,0-0.5l3.6-7.7L135,37.3z"/>
		<path class="st0" d="M158,39.1h-4.1c-0.1,0-0.3,0-0.4-0.1c-0.1-0.1-0.1-0.2-0.1-0.4v-1.1c0-0.1,0-0.3,0.1-0.4
			c0.1-0.1,0.2-0.1,0.4-0.1h4.1v-4.1c0-0.1,0-0.3,0.1-0.3c0.1-0.1,0.2-0.1,0.4-0.1h1.1c0.1,0,0.3,0,0.4,0.1c0.1,0.1,0.1,0.2,0.1,0.3
			v4.1h4.1c0.1,0,0.3,0,0.3,0.1c0.1,0.1,0.1,0.2,0.1,0.4v1.1c0,0.1,0,0.3-0.1,0.4c-0.1,0.1-0.2,0.1-0.3,0.1h-4.1v4.1
			c0,0.1,0,0.3-0.1,0.3c-0.1,0.1-0.2,0.1-0.4,0.1h-1.1c-0.1,0-0.3,0-0.4-0.1c-0.1-0.1-0.1-0.2-0.1-0.3V39.1z"/>
		<path class="st0" d="M173.7,29.1c0-0.1,0-0.3,0.1-0.4c0.1-0.1,0.2-0.1,0.3-0.1h6.1c1.3,0,2.5,0.2,3.6,0.7c1.1,0.5,2.1,1.2,3,2
			c0.9,0.8,1.5,1.8,2,3c0.5,1.1,0.7,2.3,0.7,3.6c0,1.3-0.2,2.5-0.7,3.7c-0.5,1.1-1.2,2.1-2,3c-0.9,0.8-1.8,1.5-3,2
			c-1.1,0.5-2.3,0.7-3.6,0.7h-6.1c-0.1,0-0.3,0-0.3-0.1c-0.1-0.1-0.1-0.2-0.1-0.4V29.1z M179.9,44.7c1,0,1.9-0.2,2.7-0.5
			c0.8-0.3,1.5-0.8,2.1-1.4c0.6-0.6,1.1-1.3,1.4-2.2s0.5-1.7,0.5-2.7c0-1-0.2-1.9-0.5-2.7s-0.8-1.5-1.4-2.1
			c-0.6-0.6-1.3-1.1-2.1-1.4c-0.8-0.3-1.7-0.5-2.7-0.5h-3.5v13.6H179.9z"/>
		<path class="st0" d="M191.8,41.9c0-0.7,0.1-1.5,0.4-2.1c0.3-0.7,0.6-1.3,1.1-1.8c0.5-0.5,1-0.9,1.7-1.2c0.7-0.3,1.4-0.5,2.2-0.5
			c0.7,0,1.3,0.1,1.9,0.4c0.6,0.2,1.1,0.6,1.6,1c0.4,0.4,0.8,1,1,1.6c0.2,0.6,0.4,1.3,0.4,2c0,0.1,0,0.2,0,0.4c0,0.2,0,0.3,0,0.4
			c0,0.3-0.2,0.5-0.5,0.5h-7.3c0,0.4,0.1,0.7,0.3,1.1c0.2,0.3,0.4,0.7,0.6,0.9c0.3,0.3,0.6,0.5,1,0.6c0.4,0.2,0.8,0.2,1.2,0.2
			c0.5,0,0.9-0.1,1.3-0.3c0.4-0.2,0.8-0.3,1-0.5c0.2-0.1,0.3-0.2,0.4-0.2c0.1,0,0.2,0,0.3,0.2l0.7,1c0.1,0.1,0.1,0.2,0.2,0.3
			c0,0.1-0.1,0.2-0.2,0.4c-0.4,0.3-0.9,0.6-1.6,0.9c-0.7,0.3-1.5,0.4-2.4,0.4c-0.8,0-1.5-0.1-2.2-0.4c-0.7-0.3-1.2-0.7-1.7-1.2
			c-0.5-0.5-0.8-1.1-1.1-1.8C191.9,43.4,191.8,42.7,191.8,41.9z M199.5,40.7c0-0.3-0.1-0.6-0.2-0.9c-0.1-0.3-0.3-0.5-0.5-0.8
			c-0.2-0.2-0.5-0.4-0.8-0.5c-0.3-0.1-0.6-0.2-0.9-0.2c-0.7,0-1.3,0.2-1.8,0.7c-0.5,0.5-0.8,1-0.9,1.7H199.5z"/>
		<path class="st0" d="M204.8,29.1c0-0.1,0-0.3,0.1-0.4c0.1-0.1,0.2-0.1,0.4-0.1h1.5c0.1,0,0.3,0,0.4,0.1c0.1,0.1,0.1,0.2,0.1,0.4
			v7.8c0.1,0,0.4-0.1,0.9-0.3c0.5-0.2,1-0.3,1.7-0.3c0.7,0,1.4,0.1,2.1,0.4c0.6,0.3,1.2,0.7,1.7,1.2c0.5,0.5,0.8,1.1,1.1,1.8
			c0.3,0.7,0.4,1.4,0.4,2.2c0,0.8-0.1,1.5-0.4,2.2c-0.3,0.7-0.6,1.3-1.1,1.8s-1,0.9-1.6,1.2c-0.6,0.3-1.3,0.4-2,0.4
			c-0.5,0-1-0.1-1.4-0.2c-0.4-0.2-0.8-0.3-1.1-0.5c-0.3-0.2-0.6-0.5-0.9-0.7l-0.2,0.8c-0.1,0.3-0.2,0.5-0.5,0.5h-0.8
			c-0.1,0-0.3,0-0.4-0.1c-0.1-0.1-0.1-0.2-0.1-0.4V29.1z M207.4,43.6c0,0.1,0.1,0.2,0.2,0.4c0.1,0.2,0.3,0.4,0.5,0.5
			c0.2,0.2,0.5,0.3,0.8,0.5c0.3,0.1,0.7,0.2,1.1,0.2c0.4,0,0.8-0.1,1.2-0.3s0.6-0.4,0.9-0.7c0.2-0.3,0.4-0.7,0.6-1.1
			c0.1-0.4,0.2-0.8,0.2-1.3c0-0.4-0.1-0.9-0.2-1.3s-0.4-0.8-0.6-1.1c-0.3-0.3-0.6-0.5-1-0.7c-0.4-0.2-0.8-0.3-1.2-0.3
			c-0.4,0-0.7,0-1,0.1c-0.3,0.1-0.5,0.1-0.7,0.2c-0.2,0.1-0.4,0.2-0.6,0.3V43.6z"/>
		<path class="st0" d="M218.9,38.8h-1.1c-0.1,0-0.3,0-0.4-0.1c-0.1-0.1-0.1-0.2-0.1-0.4v-1.2c0-0.3,0.2-0.5,0.5-0.5h1.1v-3
			c0-0.1,0-0.3,0.1-0.4c0.1-0.1,0.2-0.1,0.4-0.1l1.5,0c0.1,0,0.3,0,0.3,0.1c0.1,0.1,0.1,0.2,0.1,0.4v3h2.7c0.3,0,0.5,0.2,0.5,0.5
			v1.2c0,0.1,0,0.3-0.1,0.4c-0.1,0.1-0.2,0.1-0.4,0.1h-2.7v5.3c0,0.5,0.1,0.8,0.2,0.9c0.2,0.1,0.4,0.2,0.6,0.2
			c0.3,0,0.6-0.1,0.9-0.2s0.6-0.2,0.7-0.3c0.2-0.1,0.3-0.1,0.4,0c0.1,0.1,0.2,0.2,0.2,0.3l0.5,1.2c0.1,0.3,0,0.5-0.2,0.6
			c-0.1,0-0.2,0.1-0.4,0.2c-0.2,0.1-0.5,0.2-0.8,0.3c-0.3,0.1-0.6,0.2-0.9,0.2c-0.3,0.1-0.7,0.1-1,0.1c-0.5,0-1-0.1-1.3-0.2
			c-0.3-0.2-0.6-0.4-0.8-0.7c-0.2-0.3-0.4-0.6-0.4-1c-0.1-0.4-0.1-0.8-0.1-1.3V38.8z"/>
	</g>
	<g>
		<path class="st0" d="M22.5,30.1c-0.7,2.1-0.8,4.2-0.2,6.6c0.8,3.3,2.4,5.8,5.3,7.8c1.9,1.4,4.3,2.1,7.1,2c0.1,0,0.1,0,0.2,0
			c-3.5-1.3-5.9-4.6-5.9-8.5c0-2.7,1.2-5.1,3.1-6.8l0,0c3.7-3.4,8.1-3.8,9.3-3.8c3.3-0.1,6.1,0.7,8.4,2.4c3.3,2.4,5.3,5.3,6.1,9
			c0,0.2,0.1,0.4,0.1,0.6c0-0.4,0.1-0.9,0.1-1.3c0-9.9-8.1-18-18-18c-4.7,0-9,1.8-12.2,4.8C24.1,26.6,23,28.4,22.5,30.1z"/>
		<path class="st1" d="M53.6,45.8c0.7-2.1,0.8-4.2,0.2-6.6c-0.8-3.3-2.4-5.8-5.3-7.8c-1.9-1.4-4.3-2.1-7.1-2c-0.1,0-0.2,0-0.3,0
			c3.5,1.3,6,4.6,6,8.5c0,2.7-1.2,5.1-3,6.8l0,0c-0.1,0.1-0.2,0.1-0.2,0.2c0,0,0,0,0,0c-3.6,3.2-7.8,3.5-9.1,3.6c-0.2,0-0.3,0-0.5,0
			c-3,0-5.7-0.8-7.9-2.4c-3.3-2.4-5.3-5.3-6.1-9c-0.1-0.2-0.1-0.5-0.1-0.7c0,0.5-0.1,1-0.1,1.5c0,9.9,8.1,18,18,18
			c4.7,0,9-1.8,12.3-4.8C51.9,49.3,53,47.6,53.6,45.8z"/>
	</g>
</g>
<g>
	<g>
		<line class="st2" x1="372.8" y1="185.9" x2="376.7" y2="185.9"/>
		<g>
			<polygon points="373.2,186.4 373.3,186.3 372.9,185.9 373.3,185.4 373.2,185.3 372.7,185.9 			"/>
		</g>
	</g>
</g>
</svg>
