<svg id="Layer_1" data-name="Layer 1" xmlns="http://www.w3.org/2000/svg" viewBox="0 0 110.49 33.17"><defs><style>.cls-1{fill:none;}.cls-2{fill:#fbfbfb;}</style></defs><title>Artboard 2</title><rect class="cls-1" x="-7.2" y="-6.77" width="124.52" height="46.67"/><path class="cls-2" d="M109.23,6.71a.37.37,0,0,0,0-.15H109c-.55,0-.89,0-1.88,0l-.95,0h-.29s0,.14,0,.18a.3.3,0,0,0,0,.19,4.37,4.37,0,0,1,1.13.32,2.12,2.12,0,0,1,.31,1.11c0,.16,0,.33,0,.77v2.28a4.4,4.4,0,0,1,0,.47c-.18-.21-.45-.6-.88-1.09l-3.64-4a.86.86,0,0,0-.17-.15h-.32l-2.15,0a.44.44,0,0,0-.05.15,1.91,1.91,0,0,0,0,.21,1.54,1.54,0,0,1,.82.41,4,4,0,0,1,.57.69.84.84,0,0,1,0,.35c0,.57,0,1.36,0,2.13v2.21a5.36,5.36,0,0,1-.06.83,2.28,2.28,0,0,1-1.14.55.53.53,0,0,0,0,.2s0,.14,0,.15h.21l1,0c.48,0,.8,0,1.25,0h.66s.05-.14.05-.18a.57.57,0,0,0,0-.18,2.1,2.1,0,0,1-1.31-.67,6,6,0,0,1-.14-1.36c0-.34,0-.82,0-1.47,0-.86,0-1.61,0-2l.19.24,5,5.66a.66.66,0,0,0,.31.06.3.3,0,0,0,.13,0,1.24,1.24,0,0,0,.1-.49c0-.32,0-.64,0-.81V8.7c0-1.37.65-1.75,1.4-1.78a.52.52,0,0,0,0-.21M96.74,10.18a5.17,5.17,0,0,1-1.08,3.61,1.79,1.79,0,0,1-1.16.39,1.61,1.61,0,0,1-1.44-.73,5.74,5.74,0,0,1-.65-2.84A4.26,4.26,0,0,1,93.5,7.33a1.76,1.76,0,0,1,1.14-.42,1.82,1.82,0,0,1,1.48.75,4.23,4.23,0,0,1,.62,2.52m2,.21A3.63,3.63,0,0,0,96.77,7a4.11,4.11,0,0,0-2.07-.56,4.43,4.43,0,0,0-3.67,2,4.09,4.09,0,0,0-.64,2.2,3.92,3.92,0,0,0,4,4,4.5,4.5,0,0,0,1.66-.32,3.94,3.94,0,0,0,1.51-1,4.22,4.22,0,0,0,1.1-2.91M89.13,9V6.79c0-.17-.07-.21-.23-.21-.33,0-2.05,0-3.79,0L82,6.6h-.81c-.14,0-.18,0-.18.19V8.87a.33.33,0,0,0,.17,0,.93.93,0,0,0,.24,0A3.69,3.69,0,0,1,83,7.07c.33,0,1,0,1.14,0,0,.12,0,.5,0,1,0,.78,0,1.12,0,3,0,1.61,0,2.33,0,2.5s0,.53-1.3.59a.66.66,0,0,0,0,.25,1,1,0,0,0,0,.17h.42l1.75,0,2,0h.31a.58.58,0,0,0,0-.23.41.41,0,0,0,0-.19,2.27,2.27,0,0,1-1.13-.21A3.53,3.53,0,0,1,86,13c0-1.17,0-1.62,0-2.41,0-1,0-1.7,0-3.58h.83a2.06,2.06,0,0,1,1.3.83A5.86,5.86,0,0,1,88.74,9a.55.55,0,0,0,.18,0,.6.6,0,0,0,.21,0m-9.4,3.54a2.73,2.73,0,0,0,0-.31.26.26,0,0,0-.16,0,.93.93,0,0,0-.24,0,4.27,4.27,0,0,1-1.2,1.67,1.8,1.8,0,0,1-.82.12h-.89a4,4,0,0,1-.72-.06c-.17,0-.34-.29-.42-.47a1.17,1.17,0,0,1-.12-.68V10.42h.41a1.72,1.72,0,0,1,.66.15,1,1,0,0,1,.49.46,3.62,3.62,0,0,1,.19.9.59.59,0,0,0,.28.05.35.35,0,0,0,.22-.06c0-.29-.07-1.09-.07-1.52s.08-1.3.11-1.69a.47.47,0,0,0-.22-.05.68.68,0,0,0-.28,0c0,.15-.15.61-.17.64a1.39,1.39,0,0,1-.74.57,3.11,3.11,0,0,1-.64.08h-.23V9c0-1.05,0-1.38,0-1.58s0-.27,0-.37a5,5,0,0,1,.65,0h1a1.19,1.19,0,0,1,.7.22,4.44,4.44,0,0,1,1,1.35,1,1,0,0,0,.23,0c.07,0,.08,0,.17-.07,0-.66,0-1.52-.07-1.8,0-.11,0-.14-.25-.14l-.94,0H74l-1.49,0H72.1a.37.37,0,0,0,0,.18.5.5,0,0,0,0,.21c.13,0,.64,0,.8.12a.91.91,0,0,1,.39.71c0,.23,0,.86,0,1.37v2.24c0,.46,0,1.12,0,1.4a3,3,0,0,1-.24,1,3,3,0,0,1-1,.17.65.65,0,0,0-.06.24.42.42,0,0,0,.06.19h.36l1.93,0,1.43,0c.34,0,1.37.07,3.57.07a.81.81,0,0,0,.3,0,.32.32,0,0,0,0-.17c0-.22,0-.86,0-1.75m-9.22.39a.36.36,0,0,0-.37-.26h-.08A2.57,2.57,0,0,1,67.87,14a2.38,2.38,0,0,1-2.2-1.44,6,6,0,0,1-.34-2,4.75,4.75,0,0,1,.33-1.91c.48-1.26,1.17-1.66,2-1.66a2.26,2.26,0,0,1,1.74,1A4.73,4.73,0,0,1,70,9.27a1.19,1.19,0,0,0,.24,0,.63.63,0,0,0,.27-.1c0-.12-.12-1-.12-1.22s.08-.86.08-1.07A.8.8,0,0,0,70,6.8a2.17,2.17,0,0,0-.37.45,3.57,3.57,0,0,0-2.42-.78A3.71,3.71,0,0,0,64.5,7.55a4.15,4.15,0,0,0-1.17,3.07,4,4,0,0,0,1.54,3.26,4.33,4.33,0,0,0,2.54.74,3.39,3.39,0,0,0,2.79-1.17,2.22,2.22,0,0,0,.31-.51M62,6.71a.26.26,0,0,0,0-.15h-.25c-.54,0-.89,0-1.87,0l-1,0h-.28s-.05.14-.05.18a.26.26,0,0,0,.06.19,4.43,4.43,0,0,1,1.12.32,2,2,0,0,1,.31,1.11,5.94,5.94,0,0,1,0,.77v2.28a2.44,2.44,0,0,1,0,.47c-.18-.21-.44-.6-.88-1.09l-3.64-4a.59.59,0,0,0-.16-.15h-.33l-2.15,0a.42.42,0,0,0,0,.15,1.77,1.77,0,0,0,0,.21,1.48,1.48,0,0,1,.82.41A3.67,3.67,0,0,1,54.3,8a1.08,1.08,0,0,1,0,.35c0,.57,0,1.36,0,2.13v2.21a4.19,4.19,0,0,1-.07.83,2.2,2.2,0,0,1-1.14.55.79.79,0,0,0,0,.2s0,.14,0,.15h.21l1,0c.48,0,.81,0,1.26,0h.65s0-.14,0-.18a.57.57,0,0,0,0-.18A2.1,2.1,0,0,1,55,13.42a6.69,6.69,0,0,1-.14-1.36c0-.34,0-.82,0-1.47,0-.86,0-1.61,0-2,.07.07.14.17.2.24l5,5.66a.69.69,0,0,0,.31.06.27.27,0,0,0,.13,0,1.24,1.24,0,0,0,.1-.49c0-.32,0-.64,0-.81V8.7c0-1.37.64-1.75,1.39-1.78A.41.41,0,0,0,62,6.71M51.25,14.27a.72.72,0,0,0,0-.22c-.16,0-.61-.06-.8-.1a1.64,1.64,0,0,1-.37-.84c0-.52,0-1.6,0-2.61V7.81a.87.87,0,0,1,.2-.59,1.88,1.88,0,0,1,1-.28.71.71,0,0,0,0-.21.34.34,0,0,0-.05-.17h-.32c-.45,0-1.52.05-1.89.05l-1.78,0h-.24a.29.29,0,0,0,0,.19,1.5,1.5,0,0,0,0,.2,2.72,2.72,0,0,1,.85.15,1.24,1.24,0,0,1,.36.93c0,.21,0,.66,0,1.66,0,.54,0,1.31,0,1.94,0,.31,0,1,0,1.41a2,2,0,0,1-.15.65c-.13.11-.27.31-1.06.36a.91.91,0,0,0,0,.23c0,.09,0,.13,0,.18h.18c.44,0,1.53-.05,2.1-.05l1.65,0h.36a.45.45,0,0,0,0-.18M42.5,8.58a1.69,1.69,0,0,1-1,1.58,4,4,0,0,1-.89.08,3,3,0,0,1-.41,0V7.29a.31.31,0,0,1,.07-.24A1.1,1.1,0,0,1,40.73,7c.85,0,1.22.08,1.52.59a1.9,1.9,0,0,1,.25,1m3.16,5.7a.56.56,0,0,0,0-.23,1.69,1.69,0,0,1-.72-.14,2.68,2.68,0,0,1-.18-.28c-.15-.5-.31-.84-.47-1.25a4.23,4.23,0,0,0-.81-1.3,3.8,3.8,0,0,0-.82-.36l-.45-.17.45-.07a1.92,1.92,0,0,0,1.2-.4,1.72,1.72,0,0,0,.68-1.42,2.09,2.09,0,0,0-1.37-2,5.12,5.12,0,0,0-1.3-.12c-.82,0-2,.07-2.51.07l-1.5,0-.64,0a.76.76,0,0,0-.05.21,1.5,1.5,0,0,0,0,.2l.7.09a1.23,1.23,0,0,1,.45.59,25.86,25.86,0,0,1,.07,2.78c0,1.11,0,2.4,0,2.81a.86.86,0,0,1-.45.74c-.14,0-.4.06-.62.07a.66.66,0,0,0-.06.22.77.77,0,0,0,.05.17l2.17,0c.69,0,1.28,0,1.9,0a.33.33,0,0,0,0-.16.49.49,0,0,0,0-.23c-.21,0-.49-.09-.61-.11a.82.82,0,0,1-.47-.77V10.68h.29a1.08,1.08,0,0,1,.57.17,2.1,2.1,0,0,1,.87.8A6.43,6.43,0,0,1,42.63,14c0,.23.12.43.33.45s.67,0,1.08,0H45.6a.3.3,0,0,0,.06-.18M33.82,8.63A1.75,1.75,0,0,1,33.27,10a1.74,1.74,0,0,1-1.13.3l-.47,0c-.09,0-.15,0-.15-.08l0-3.19a3.35,3.35,0,0,1,.63-.06c.74,0,1.2.19,1.41.64a2.26,2.26,0,0,1,.24,1.05m2,0a2.08,2.08,0,0,0-1.17-1.89,5.27,5.27,0,0,0-2-.25c-.84,0-2.15.06-2.73.06-.4,0-1,0-1.35,0a.41.41,0,0,0,0,.17.56.56,0,0,0,0,.22c.21.07.54.12.76.17a1,1,0,0,1,.3.63c0,.38.05.86.05,1.69,0,2.3,0,3.51,0,3.77A.94.94,0,0,1,29,14a4.69,4.69,0,0,1-.64.11,1.3,1.3,0,0,0,0,.23.28.28,0,0,0,0,.15l1.77,0c1,0,2,0,2.37,0h.27a.32.32,0,0,0,0-.17.62.62,0,0,0,0-.2,1.72,1.72,0,0,1-1-.35.91.91,0,0,1-.22-.64l0-2.4c.66.05,1.36.07,1.74.07a4.05,4.05,0,0,0,1.26-.2,2,2,0,0,0,1.26-1.9"/><path class="cls-2" d="M109.41,18.87c0-.06,0-.08-.07-.13-.45,0-1,0-1.26,0-.56,0-1.23,0-1.53,0,0,.07,0,.08,0,.13a.39.39,0,0,0,0,.13c.32.07.77.14.86.3a.75.75,0,0,1,.1.42,1,1,0,0,1-.07.41c-.1.27-.3.69-.6,1.29a19.46,19.46,0,0,1-1,1.9c-.28-.48-.91-1.74-1.07-2.07l-.61-1.33a1.14,1.14,0,0,1,0-.3.74.74,0,0,1,0-.28c.1-.2.44-.22.9-.27a.55.55,0,0,0,0-.17c0-.07,0-.05-.07-.1h-.19c-.73,0-.51,0-1.77,0-.53,0-1.18,0-1.26,0s-.07.08-.07.16a.2.2,0,0,0,0,.13c.72.17.94.3,1,.45l1.91,3.74a5,5,0,0,1,.35.81,6.56,6.56,0,0,1,.09,1.31.94.94,0,0,1-.35.84,4.62,4.62,0,0,1-.88.14.29.29,0,0,0,0,.16.61.61,0,0,0,0,.13h1.46l1.22,0,.85,0a.25.25,0,0,0,.06-.14.19.19,0,0,0,0-.14,2.69,2.69,0,0,1-.94-.22.83.83,0,0,1-.29-.7l-.08-1.64a.56.56,0,0,1,0-.26,1.17,1.17,0,0,1,.12-.3L108,20a2.32,2.32,0,0,1,.69-.73,3.48,3.48,0,0,1,.71-.22.27.27,0,0,0,0-.14m-8.81,2.25V19c0-.16-.07-.2-.23-.2-.33,0-1.83,0-3.58,0l-2.86,0h-.81c-.14,0-.19,0-.19.18v2a.22.22,0,0,0,.13,0,.34.34,0,0,0,.14,0c.42-.95.64-1.45,1.37-1.82.33,0,1.47-.05,1.65-.05,0,.12,0,.51,0,1,0,.79,0,1.21,0,3.07,0,1.6,0,2.43,0,2.6s0,.54-1.3.59a.4.4,0,0,0,0,.19.62.62,0,0,0,0,.13h.42c.41,0,.94-.05,1.33-.05s.92,0,1.58,0h.31a.34.34,0,0,0,0-.17.26.26,0,0,0,0-.15,2.29,2.29,0,0,1-1.13-.21,3.59,3.59,0,0,1-.09-.81c0-1.18,0-1.74,0-2.52,0-1,0-1.79,0-3.68.15,0,1,0,1.28,0a2,2,0,0,1,1.23.83,3.33,3.33,0,0,1,.49,1.19.5.5,0,0,0,.17,0,.21.21,0,0,0,.12,0M91.54,26.5a.37.37,0,0,0,0-.15,6.16,6.16,0,0,1-.81-.1,1.64,1.64,0,0,1-.37-.84c0-.52,0-1.71,0-2.72V19.92a.91.91,0,0,1,.19-.59,1.82,1.82,0,0,1,1-.28.43.43,0,0,0,0-.14.23.23,0,0,0-.06-.14h-.31c-.46,0-1.12.06-1.49.06l-1.36,0h-.24a.15.15,0,0,0,0,.14.93.93,0,0,0,0,.14,2.43,2.43,0,0,1,.85.15,1.24,1.24,0,0,1,.36.93c0,.2,0,.76,0,1.77,0,.54,0,1.28,0,1.91,0,.32,0,1.14,0,1.52a2,2,0,0,1-.15.65c-.13.11-.27.31-1.06.36a.51.51,0,0,0,0,.17c0,.08,0,.08,0,.14h.18c.44,0,1.12-.06,1.68-.06.17,0,.89,0,1.25,0h.35a.24.24,0,0,0,.05-.15m-5.39-2a2,2,0,0,0-1.23-1.92,6.49,6.49,0,0,0-1.21-.44,7.52,7.52,0,0,1-1.58-.6,1.3,1.3,0,0,1-.64-1.19A1.44,1.44,0,0,1,83,19.08a1.85,1.85,0,0,1,1.5.76,5.48,5.48,0,0,1,.67,1.25l.11,0a.36.36,0,0,0,.24-.11,9.48,9.48,0,0,1-.08-1,4.73,4.73,0,0,1,.1-.85.35.35,0,0,0-.33-.16,2,2,0,0,0-.43.4A2.73,2.73,0,0,0,83,18.73a2.13,2.13,0,0,0-2.3,2.08,2.18,2.18,0,0,0,.4,1.2,2.39,2.39,0,0,0,1.06.8c.31.13,1.73.55,1.93.63.87.34,1.2.63,1.2,1.41a1.73,1.73,0,0,1-.48,1.1,1.52,1.52,0,0,1-1.21.51,2.43,2.43,0,0,1-1.83-.81A4.86,4.86,0,0,1,81,24.18a.36.36,0,0,0-.15,0,.32.32,0,0,0-.2.07c0,.14,0,.86,0,1.07a4.75,4.75,0,0,1-.12,1,.43.43,0,0,0,.35.21,1.78,1.78,0,0,1,.54-.35.53.53,0,0,1,.26.1,3.16,3.16,0,0,0,1.83.55c1.53,0,2.63-.78,2.63-2.29M76.5,20.74a1.76,1.76,0,0,1-1.19,1.62,5.55,5.55,0,0,1-1.14.09c-.13,0-.5,0-.66,0v-3c0-.15,0-.22.07-.25a3.1,3.1,0,0,1,.76-.07c1,0,1.5.1,1.87.63a1.7,1.7,0,0,1,.3,1m2.29,5.77a.3.3,0,0,0-.05-.16,1.67,1.67,0,0,1-.72-.14l-.19-.27a13.55,13.55,0,0,0-.45-1.36,4.11,4.11,0,0,0-.81-1.3,2.88,2.88,0,0,0-.78-.36l-.45-.18.45-.06a2,2,0,0,0,1.15-.41,1.7,1.7,0,0,0,.72-1.4,2.11,2.11,0,0,0-1.36-2A5.67,5.67,0,0,0,75,18.77c-.82,0-1.43.08-2,.08l-1.08,0-.65,0a.39.39,0,0,0-.05.14.77.77,0,0,0,0,.15l.7.1a1.33,1.33,0,0,1,.46.59c0,.35.06,1.33.06,2.87,0,1.11,0,2.5,0,2.92a.82.82,0,0,1-.45.73c-.14,0-.4.06-.62.07a.35.35,0,0,0-.06.16.79.79,0,0,0,0,.13l1.75,0c.7,0,.88,0,1.5,0a.34.34,0,0,0,0-.12.39.39,0,0,0,0-.17c-.22,0-.49-.08-.61-.1a.83.83,0,0,1-.47-.78V22.78a4,4,0,0,1,.49,0,2,2,0,0,1,.87.16A2.41,2.41,0,0,1,76,23.8a6.79,6.79,0,0,1,.69,2.38c0,.23.12.42.32.44a3.83,3.83,0,0,0,.64,0h1.13a.22.22,0,0,0,.06-.15m-9.14-1.65a2.92,2.92,0,0,0,0-.32.29.29,0,0,0-.17,0l-.14,0a2.86,2.86,0,0,1-1.12,1.67,2,2,0,0,1-.93.12H66.06a3.7,3.7,0,0,1-.72-.06c-.16,0-.34-.29-.41-.46a1.45,1.45,0,0,1-.12-.76V22.56h.35a2.15,2.15,0,0,1,.92.15,1.26,1.26,0,0,1,.59.47,3.53,3.53,0,0,1,.15.9.26.26,0,0,0,.18.05.22.22,0,0,0,.17-.06c0-.29-.06-1.09-.06-1.52s.07-1.21.11-1.61a.34.34,0,0,0-.18,0,.32.32,0,0,0-.17,0c0,.16-.12.61-.14.65a1.65,1.65,0,0,1-.84.58,3.82,3.82,0,0,1-.9.08h-.17V21.17c0-1,0-1.47,0-1.67s0-.27,0-.37.42,0,.92,0H67a1.35,1.35,0,0,1,.7.22,2.83,2.83,0,0,1,1,1.35.3.3,0,0,0,.13,0c.06,0,.08,0,.16-.06,0-.66,0-1.42-.06-1.69,0-.11,0-.14-.26-.14l-.93,0H64c-.65,0-.79,0-1.08,0h-.37a.21.21,0,0,0,0,.13.27.27,0,0,0,0,.15,4.7,4.7,0,0,1,.8.12c.15.13.29.16.39.69,0,.23,0,1,0,1.47V23.6c0,.46,0,1.22,0,1.49a3,3,0,0,1-.24,1.05,2.67,2.67,0,0,1-1,.17.37.37,0,0,0-.05.17.25.25,0,0,0,.05.15h.36l1.52,0,1.27,0c.35,0,1.37.07,3.58.07a1,1,0,0,0,.29,0,.3.3,0,0,0,0-.18c0-.21,0-.75,0-1.63m-8.07-5.95c0-.05,0-.11,0-.12h-.38l-.86,0c-.88,0-1.2-.06-1.33-.06h-.19c0,.06-.06.09-.06.14s0,.08,0,.12a4.24,4.24,0,0,1,.76.17,1,1,0,0,1,.27.68,4.28,4.28,0,0,1-.26,1l-1.76,4.31-2.15-5.46a.82.82,0,0,1,.35-.61,5.22,5.22,0,0,1,.71-.09.38.38,0,0,0,.05-.15s0-.11-.06-.12h-.27c-.34,0-.85.05-1.43.05-.25,0-.74,0-1.22,0H53.3a.22.22,0,0,0,0,.27,3.29,3.29,0,0,1,.91.37,17.67,17.67,0,0,1,.9,2l.9,2.18c.75,1.81,1.2,3,1.25,3.23.06,0,0,.06.1.06s.09,0,.11-.07L60.27,20a2.2,2.2,0,0,1,.39-.62,1.69,1.69,0,0,1,.88-.35.74.74,0,0,0,0-.14M52,26.5a.37.37,0,0,0,0-.15,6.16,6.16,0,0,1-.81-.1,1.73,1.73,0,0,1-.37-.84c0-.52,0-1.71,0-2.72V19.92a.85.85,0,0,1,.2-.59,1.77,1.77,0,0,1,1-.28.39.39,0,0,0,0-.14.18.18,0,0,0-.06-.14h-.31c-.46,0-1.11.06-1.49.06l-1.36,0h-.24a.15.15,0,0,0,0,.14.93.93,0,0,0,0,.14,2.43,2.43,0,0,1,.85.15,1.2,1.2,0,0,1,.36.93c0,.2,0,.76,0,1.77,0,.54,0,1.28,0,1.91,0,.32,0,1.14,0,1.52a1.73,1.73,0,0,1-.15.65c-.13.11-.26.31-1.06.36a.51.51,0,0,0,0,.17c0,.08,0,.08,0,.14h.19c.43,0,1.11-.06,1.68-.06.16,0,.88,0,1.24,0H52a.31.31,0,0,0,0-.15M47.1,18.88a.23.23,0,0,0,0-.11h-.25c-.54,0-.78,0-1.76,0-.34,0-.84,0-1,0h-.29a.24.24,0,0,0,0,.15.16.16,0,0,0,0,.12,4.73,4.73,0,0,1,1.13.31,2.18,2.18,0,0,1,.31,1.11c0,.17,0,.33,0,.78v3.24a4,4,0,0,1,0,.46c-.18-.2-.5-.6-.93-1.11L40.17,19a.76.76,0,0,0-.16-.14h-.29c-.69,0-1.31,0-1.49,0a.19.19,0,0,0,0,.1.89.89,0,0,0,0,.15,1.82,1.82,0,0,1,.84.3,3.52,3.52,0,0,1,.53.65.76.76,0,0,1,0,.34c0,.57,0,1.6,0,2.37V25a5.25,5.25,0,0,1-.06.83,2.36,2.36,0,0,1-1.15.56.28.28,0,0,0,0,.13.2.2,0,0,0,0,.11h.21c.22,0,.72,0,1,0s.69,0,1.14,0h.66s.05-.1.05-.15a.26.26,0,0,0,0-.11,2,2,0,0,1-1.31-.67A6.17,6.17,0,0,1,40,24.34c0-.34,0-.91,0-1.55,0-.87,0-2.05,0-2.44l.24.29,5.16,6.05a.18.18,0,0,0,.14.06s0,0,.06,0a1.63,1.63,0,0,0,.06-.49c0-.31,0-.64,0-.81V20.8c0-1.36.65-1.74,1.4-1.77a.28.28,0,0,0,0-.15M37,18.94A.18.18,0,0,0,37,18.8h-.31l-1.19,0-1.24,0h-.4a.25.25,0,0,0,0,.14.39.39,0,0,0,0,.14c.05,0,.84,0,1,.21a2.56,2.56,0,0,1,.43.8,7.24,7.24,0,0,1,.09,1.2c0,.93,0,1.55,0,1.88a6.23,6.23,0,0,1-.2,1.45A2,2,0,0,1,33,26a2.89,2.89,0,0,1-1.27-.28,1.84,1.84,0,0,1-1.06-1.37l-.06-3.27V19.79c0-.25.31-.48.42-.61a4.41,4.41,0,0,1,.84-.11.37.37,0,0,0,.05-.15.21.21,0,0,0-.07-.15l-.42,0-1.27,0H28.4a.16.16,0,0,0-.06.15.15.15,0,0,0,.05.13c.34,0,.57.08.73.11a.94.94,0,0,1,.38.48c0,.14,0,.49,0,1.17v2.62a6.38,6.38,0,0,0,.11,1.46,2.1,2.1,0,0,0,.95,1.34,3.55,3.55,0,0,0,2,.53,3.84,3.84,0,0,0,1.88-.45,2.25,2.25,0,0,0,1.08-1.45,5.37,5.37,0,0,0,.17-1.3V21.5c0-.39,0-.88,0-1.08a2.21,2.21,0,0,1,.33-1.2,4.46,4.46,0,0,1,.91-.15.28.28,0,0,0,0-.13"/><path class="cls-2" d="M10.34,8a.17.17,0,0,0-.15.1l-.32.72h0s0,0,0,0a2.07,2.07,0,0,0-.13-.32l-.1-.23L9.5,8A.16.16,0,0,0,9.37,8s0,0,0,0v0h.44v0a0,0,0,0,1,0,0S9.69,8,9.69,8v.05l.21.5.18-.42a.28.28,0,0,0,0-.11S10.07,8,10,8v0h.36v0A0,0,0,0,1,10.34,8Z"/><path class="cls-2" d="M11.23,8.75h-.81V8.7a.27.27,0,0,0,.13,0,.49.49,0,0,0,0-.13v-.5c0-.09-.05-.09-.14-.1a0,0,0,0,1,0,0s0,0,0,0h.73s0,0,0,0v.19h0A.41.41,0,0,0,11,8L11,8h-.21s0,0,0,0v.28h.13A.16.16,0,0,0,11,8.2a.14.14,0,0,0,0-.07h0s0,.1,0,.18,0,.13,0,.17h0c0-.08,0-.13-.08-.15l-.09,0h-.06v.22a.25.25,0,0,0,0,.1s0,0,.05,0h.29a.52.52,0,0,0,.14-.19h0v.22S11.26,8.75,11.23,8.75Z"/><path class="cls-2" d="M12.25,8.17h0a.27.27,0,0,0-.06-.12A.21.21,0,0,0,12,8h-.09v.63c0,.1.05.1.15.11a0,0,0,0,1,0,0v0h-.46v0a0,0,0,0,1,0,0c.13,0,.14,0,.15-.07V8.07a.37.37,0,0,0,0-.11h-.13a.46.46,0,0,0-.17.19h0V7.94s0,0,0,0h.83v.24Z"/><path class="cls-2" d="M10.3,9.5h0a.27.27,0,0,0-.06-.12.2.2,0,0,0-.15-.08H10v.62c0,.1,0,.1.15.11s0,0,0,0v0H9.66v0c.14,0,.15,0,.16-.08V9.29H9.67c-.07,0-.11.09-.17.19h0V9.26a0,0,0,0,1,0,0h.83v.25Z"/><path class="cls-2" d="M11.26,10.07h-.8v0s0,0,0,0l.12,0s0-.05,0-.13V9.38c0-.1,0-.1-.14-.11v0h.73s0,0,0,0v.19h0a.51.51,0,0,0-.13-.15l-.07,0h-.21s0,0,0,0a1.33,1.33,0,0,0,0,.17V9.6h.13A.14.14,0,0,0,11,9.52s0,0,0-.07h0s0,0,0,0,0,.09,0,.18,0,.13,0,.16H11c0-.07,0-.12-.08-.15l-.09,0h-.06v.22c0,.05,0,.08,0,.1l.05,0h.29a.56.56,0,0,0,.14-.18h.05v.22S11.3,10.07,11.26,10.07Z"/><path class="cls-2" d="M11.86,10.09a.42.42,0,0,1-.2-.05h0l-.06,0a.05.05,0,0,1-.05,0s0-.07,0-.1,0-.12,0-.14l0,0h0s.05.12.08.16a.26.26,0,0,0,.18.09A.23.23,0,0,0,12,10a.13.13,0,0,0,0-.11.09.09,0,0,0,0-.07.13.13,0,0,0-.08-.06s-.17,0-.22-.08a.41.41,0,0,1-.12-.08.32.32,0,0,1,0-.16.23.23,0,0,1,.26-.23.29.29,0,0,1,.2.06.12.12,0,0,1,.05,0l0,0s0,.07,0,.12,0,.11,0,.12H12A1,1,0,0,0,12,9.34a.19.19,0,0,0-.17-.07.14.14,0,0,0-.15.12.16.16,0,0,0,.1.13l.13,0,.14.06a.23.23,0,0,1,.13.22A.27.27,0,0,1,11.86,10.09Z"/><path class="cls-2" d="M10.64,11.4H9.83v0a.24.24,0,0,0,.13,0,.24.24,0,0,0,0-.13s0-.08,0-.12,0-.14,0-.24V10.7c0-.09,0-.09-.14-.1v0h.73s0,0,0,0l0,.19h0a.35.35,0,0,0-.12-.14.15.15,0,0,0-.08,0h-.21s0,0,0,0v.28h.12a.15.15,0,0,0,.09-.06s0-.06,0-.07h0a.82.82,0,0,0,0,.18v.17h0c0-.07,0-.12-.08-.14a.2.2,0,0,0-.1,0h-.06v.22a.22.22,0,0,0,0,.1.05.05,0,0,0,.05.05h.2l.09,0a.38.38,0,0,0,.13-.18h0v.23S10.67,11.4,10.64,11.4Z"/><path class="cls-2" d="M11.87,10.6c-.09,0-.16.05-.16.18v.44s0,.14,0,.18l0,0,0,0-.6-.64v.37a.41.41,0,0,0,0,.1.11.11,0,0,0,0,.09.23.23,0,0,0,.11,0v0s0,0,0,0h-.37v0A.35.35,0,0,0,11,11.3a.34.34,0,0,0,0-.11v-.42s0-.07,0-.09l0,0s-.07,0-.1-.05v0h.27l.44.49.1.11v-.34a.25.25,0,0,0,0-.1.2.2,0,0,0,0-.09s-.1,0-.14,0v0h.39v0Z"/><path class="cls-2" d="M14.65,8c-.08,0-.16,0-.16.19v.43s0,.14,0,.19h-.06l-.59-.64v.46a.15.15,0,0,0,0,.09l.12,0v0h-.38v0a.22.22,0,0,0,.13-.06.28.28,0,0,0,0-.1V8.12a.16.16,0,0,0,0-.09l0,0a.3.3,0,0,0-.1,0v0h.25l0,0,.44.48.1.12V8.08a.16.16,0,0,0,0-.09s-.09,0-.13,0a0,0,0,0,1,0,0h.39v0A0,0,0,0,1,14.65,8Z"/><path class="cls-2" d="M15.53,8.65a.43.43,0,0,1-.6,0,.45.45,0,0,1-.12-.32A.47.47,0,0,1,14.93,8a.43.43,0,0,1,.3-.12.37.37,0,0,1,.22.06.44.44,0,0,1,.21.37A.51.51,0,0,1,15.53,8.65ZM15.39,8a.19.19,0,0,0-.17-.09.16.16,0,0,0-.15.09.49.49,0,0,0-.08.3.54.54,0,0,0,.07.29.19.19,0,0,0,.35,0,.49.49,0,0,0,.06-.27A.47.47,0,0,0,15.39,8Z"/><path class="cls-2" d="M16.73,8a.17.17,0,0,0-.15.1l-.32.72h0s0,0,0,0a2.07,2.07,0,0,0-.13-.32L16,8.19,15.89,8A.17.17,0,0,0,15.76,8s0,0,0,0v0h.44s0,0,0,0a0,0,0,0,1,0,0s-.12,0-.12.06v.05l.21.5.18-.42a.28.28,0,0,0,0-.11s0-.07-.12-.08v0h.36v0A0,0,0,0,1,16.73,8Z"/><path class="cls-2" d="M14.38,9.5h0a.44.44,0,0,0-.06-.12.2.2,0,0,0-.16-.08h-.08v.62c0,.1,0,.1.15.11s0,0,0,0v0h-.47v0c.14,0,.15,0,.16-.08V9.39a.28.28,0,0,0,0-.1h-.13c-.07,0-.11.09-.17.19h0V9.26s0,0,0,0h.84v.25Z"/><path class="cls-2" d="M15.39,10.07H15v0c.08,0,.11,0,.11,0a.39.39,0,0,0,0-.11L15,9.77h-.29a.78.78,0,0,0-.06.16.11.11,0,0,0,0,.05s0,.06.12.06a0,0,0,0,1,0,0v0h-.35v0a0,0,0,0,1,0,0,.17.17,0,0,0,.12-.06,1.24,1.24,0,0,0,.1-.22c0-.11.11-.25.13-.31l.06-.13.05-.08,0,0,0,0a.08.08,0,0,1,0,0l.15.36a1.67,1.67,0,0,0,.08.2.75.75,0,0,0,.06.13c0,.06.08.06.13.07v0Zm-.53-.67h0a.59.59,0,0,1-.06.14.65.65,0,0,1-.07.16H15S14.89,9.5,14.86,9.4Z"/><path class="cls-2" d="M16.69,10.07h-.43v0s0,0,0,0h.08s.05,0,.05-.1V9.31h0l-.18.39-.06.14c0,.09-.06.16-.08.19s0,0,0,0,0,0,0,0l0-.1-.28-.62h0v.55a.16.16,0,0,0,.16.18,0,0,0,0,1,0,0v0h-.38v0s.11,0,.12,0,0-.05,0-.14V9.42c0-.07,0-.1-.05-.12l-.11,0v0h.36l0,0,.25.57,0-.12c0-.09.1-.23.18-.38l.05-.09h.32v0s0,0,0,0-.09,0-.12.06,0,0,0,.1v.41c0,.15,0,.17.06.18h.08s0,0,0,0S16.7,10.07,16.69,10.07Z"/><path class="cls-2" d="M14.36,10.82h0a.81.81,0,0,0-.06-.13.2.2,0,0,0-.16-.08H14v.63c0,.1.05.1.15.11v0s0,0,0,0h-.46s0,0,0,0v0c.14,0,.15,0,.16-.08v-.56a.31.31,0,0,0,0-.1h-.13c-.07,0-.11.08-.17.18h0v-.22s0,0,0,0h.83v.25Z"/><path class="cls-2" d="M15.41,10.6a.17.17,0,0,0-.15.1l-.32.71h0l0,0-.13-.32-.1-.23-.08-.16a.15.15,0,0,0-.13-.08v0h.46a0,0,0,0,1,0,0s-.13,0-.13.05a.07.07,0,0,0,0,0l.21.5.18-.41a.28.28,0,0,0,0-.11s0-.07-.12-.08v0h.36v0Z"/><path class="cls-2" d="M16.71,11.4h-.43s0,0,0,0v0h.08s.05-.05.05-.1v-.6h0l-.18.39-.06.14a1.64,1.64,0,0,0-.08.19h0l0,0,0-.11-.28-.62h0v.56c0,.12.06.18.16.18s0,0,0,0v0h-.38a0,0,0,0,1,0,0h0s.11,0,.12,0,0-.05,0-.13v-.44c0-.07,0-.09,0-.12l-.11,0v0h.36v0l.26.57,0-.11a4,4,0,0,1,.18-.38.46.46,0,0,1,.05-.1h.32v0a.13.13,0,0,0-.12.05.16.16,0,0,0,0,.1v.41c0,.16,0,.17.06.18l.08,0s0,0,0,0Z"/><path class="cls-2" d="M24.8,6.11l0-.4-.39.12a9.87,9.87,0,0,1-2.87.42,9.66,9.66,0,0,1-8.26-4.6L13,1.18l-.28.47a9.66,9.66,0,0,1-8.26,4.6,9.8,9.8,0,0,1-2.86-.42l-.39-.12,0,.4a28,28,0,0,0,.49,8.26,28.8,28.8,0,0,0,3.07,8.16,29.53,29.53,0,0,0,8.06,9.17l.2.15.19-.15a29.25,29.25,0,0,0,5.5-5.33,28,28,0,0,0,2.57-3.82,28.47,28.47,0,0,0,3-7.78l.08-.4A28,28,0,0,0,24.8,6.11ZM17.94,8.29h.48v.93h-.48Zm0,2.44h.48v.94h-.48ZM13.1,7.29A.88.88,0,0,1,13.91,7l.92.13,1.22.16a2.37,2.37,0,0,0,1.05-.17v5.09a3.19,3.19,0,0,1-1.05.15l-1.18-.15-1-.14a1.2,1.2,0,0,0-.81.26ZM8.93,7.08a2.27,2.27,0,0,0,1,.17l1.21-.16L12.09,7a.92.92,0,0,1,.81.34v5a1.25,1.25,0,0,0-.82-.26l-1,.14L10,12.31c-.86,0-1-.2-1-.2S8.93,7.42,8.93,7.08Zm-.69.62.49-.1v4.56c0,.11.26.35,1.22.35l1.2-.16.93-.13a.91.91,0,0,1,.82.34h.2a.88.88,0,0,1,.81-.34l.92.13,1.22.16c1,0,1.21-.25,1.23-.28l0-4.66.44.12v5.05a12.62,12.62,0,0,1-1.75.14c-1,0-2.32-.16-2.34-.16l-.11,0V13a1.55,1.55,0,0,1-.56.11,1.49,1.49,0,0,1-.55-.11V12.7l-.11,0a23.26,23.26,0,0,1-2.33.16,12.47,12.47,0,0,1-1.75-.14Zm-.67.59H8v.93H7.57Zm0,2.44H8v.94H7.57ZM13,31A28.8,28.8,0,0,1,7.79,26l0,0L13,20.88l5.21,5.06,0,0A29.1,29.1,0,0,1,13,31ZM23.58,14.63a27.86,27.86,0,0,1-2.88,7.53L13,14.72,5.24,22.14a28.24,28.24,0,0,1-2.95-7.83H23.64Z"/></svg>