<?xml version="1.0" standalone="no"?>
<!DOCTYPE svg PUBLIC "-//W3C//DTD SVG 20010904//EN"
 "http://www.w3.org/TR/2001/REC-SVG-20010904/DTD/svg10.dtd">
<svg version="1.0" xmlns="http://www.w3.org/2000/svg"
 width="205.000000pt" height="205.000000pt" viewBox="0 0 205.000000 205.000000"
 preserveAspectRatio="xMidYMid meet">
<metadata>
Created by potrace 1.11, written by Peter Selinger 2001-2013
</metadata>
<g transform="translate(0.000000,205.000000) scale(0.100000,-0.100000)"
fill="#000000" stroke="none">
<path d="M905 2008 c-57 -6 -133 -25 -250 -62 -92 -29 -250 -133 -338 -223
-193 -196 -291 -438 -290 -709 2 -158 31 -284 103 -430 96 -197 250 -353 445
-451 68 -35 201 -79 272 -90 57 -9 271 -10 328 -1 295 47 562 239 708 508 55
102 86 197 112 345 10 59 5 233 -10 310 -4 22 -9 48 -11 58 -2 10 -13 46 -25
80 -154 440 -580 712 -1044 665z m315 -388 c190 -63 342 -210 402 -388 28 -80
33 -114 32 -217 -1 -161 -60 -293 -186 -417 -305 -301 -811 -216 -997 167 -49
99 -64 167 -64 270 2 267 174 499 433 583 88 28 100 30 215 27 70 -2 119 -9
165 -25z"/>
</g>
</svg>
